<svg xmlns="http://www.w3.org/2000/svg" xmlns:xlink="http://www.w3.org/1999/xlink" id="Blau_CMYK_Kopie" x="0px" y="0px" viewBox="0 0 637.5 232.5" style="enable-background:new 0 0 637.5 232.5;" xml:space="preserve"><style type="text/css">	.st0{fill:#007FB5;}</style><path class="st0" d="M211.7,194.5l-31.2,30.7l5.1,1.8l33-32.5H211.7z M227.4,194.5l-34.3,33.8h6.9l34.3-33.8H227.4z M369.2,194.5 l-34.3,33.8h6.9l34.3-33.8H369.2z M385,194.5l-34.3,33.8h6.9l34.3-33.8H385z M400.8,194.5l-34.3,33.8h6.9l34.3-33.8H400.8z  M416.5,194.5l-34.3,33.8h6.9l34.3-33.8H416.5z M243.2,194.5l-34.3,33.8h7l34.3-33.8H243.2z M168.8,221.2l5.1,1.8l28.9-28.5h-6 l-0.7-0.3L168.8,221.2z M157.1,217.2l5.1,1.8l27.4-26.9l-5.1-1.8L157.1,217.2z M153.6,205.2l-3.3,9.6l0.4,0.1L178,188l-5.1-1.8 L153.6,205.2z M271.9,228.3h5.5l37.3-37v-5.2L271.9,228.3z M445.2,228.3h6.9h1l37.3-37.7v-0.1v-6.8L445.2,228.3z M327.6,220v6.8 l37-36.4v-6.8L327.6,220z M158.1,192l8.2-8.1l-4.8-1.7L158.1,192z M256.1,228.3h6.9l51.7-50.8v-6.8L256.1,228.3z M429.4,228.3h6.9 l54.1-53.3v-6.8L429.4,228.3z M327.6,204.5v6.8l37-36.4V168L327.6,204.5z M240.4,228.3h6.9l67.4-66.4v-6.8L240.4,228.3z  M413.7,228.3h6.9l69.9-68.8v-6.8L413.7,228.3z M327.6,188.9v6.8l37-36.4v-6.8L327.6,188.9z M277.7,176v2.4l-16.4,16.1h-2.3 l-34.3,33.8h7l83.2-81.9v-6.8L277.7,176z M453.5,173.6v4.1l-16.7,16.7h-4.5l-34.3,33.8h7l85.6-84.3v-6.8L453.5,173.6z M327.6,173.4 v6.8l37-36.4V137L327.6,173.4z M277.7,160.5v6.8l37-36.4v-0.8l-3.1-3L277.7,160.5z M453.5,158.1v6.8l37-36.4v-6.8L453.5,158.1z  M327.6,157.9v6.8l37-36.4v-6.8L327.6,157.9z M277.7,145v6.8l29.6-29.1l-3.5-3.4L277.7,145z M270.8,136.3l3.5,3.4l25.1-24.7 l-3.5-3.4L270.8,136.3z M453.5,142.6v6.8l37-36.4v-6.8L453.5,142.6z M327.6,142.4v6.8l37-36.4V106L327.6,142.4z M262.9,128.5 l3.5,3.4l25.2-24.8l-3.5-3.4L262.9,128.5z M248.8,126.9h6.9l28-27.5l-3.5-3.4L248.8,126.9z M256.8,93.1l-6.1,0.9l-33.4,32.9h6.9 l34.3-33.8H256.8z M267.4,93.1l-34.3,33.8h6.9l34.3-33.8H267.4z M453.5,127.1v6.8l37-36.4v-6.8L453.5,127.1z M327.6,126.9v6.8 l37-36.4v-6.8L327.6,126.9z M453.5,111.6v6.8l37-36.4v-6.8L453.5,111.6z M327.6,111.4v6.8l37-36.4V75L327.6,111.4z M453.5,96.1v6.8 l37-36.4v-6.8L453.5,96.1z M327.6,95.9v6.8l37-36.4v-6.8L327.6,95.9z M453.5,80.6v6.8l37-36.4v-6.8L453.5,80.6z M327.6,80.4v6.8 l37-36.4v-6.8L327.6,80.4z M453.5,65.1v6.8l36-35.5l-3.4-3.5L453.5,65.1z M453.1,49.9l0.4,0.4v6.1l28.3-27.8l-3.4-3.5L453.1,49.9z  M445.3,42.1l3.4,3.4l25.2-24.8l-3.4-3.5L445.3,42.1z M201.6,126.9h7L314.7,22.4v-6.8L201.6,126.9z M437.5,34.3l3.4,3.4l25.2-24.9 l-3.4-3.5L437.5,34.3z M422.5,33.5h6.9l29-28.5l-3.4-3.5L422.5,33.5z M197.5,115.3v6.8L314.7,6.8V0L197.5,115.3z M393.8-0.2 l-66.2,65.1v6.8l37-36.4v-1.7h1.7l34.3-33.8H393.8z M409.5-0.2l-34.3,33.8h6.9l34.3-33.8H409.5z M425.3-0.2l-34.3,33.8h6.9 l34.3-33.8H425.3z M441-0.2l-34.3,33.8h6.9L448-0.2H441z M155.7-0.3v1.7l1.7-1.7H155.7z M157.4-0.3l-1.7,1.7v6.8l8.6-8.5H157.4z  M173.2-0.3l-17.5,17.2v6.8l24.4-24H173.2z M188.9-0.3l-33.2,32.7v1.1h5.8l34.3-33.8H188.9z M204.7-0.3l-34.3,33.8h6.9l34.3-33.8 H204.7z M220.4-0.3l-34.3,33.8h6.9l34.3-33.8H220.4z M236.2-0.3l-34.3,33.8h6.9l34.3-33.8H236.2z M251.9-0.3l-34.3,33.8h6.9 l34.3-33.8H251.9z M267.7-0.3l-34.3,33.8h6.9l34.3-33.8H267.7z M283.5-0.3l-34.3,33.8h5.4l1.8-0.3l34.1-33.5H283.5z M299.2-0.3 l-33.6,33.1l0.2,0.4l-1.9,1.3l-66.3,65.3v6.8L306.2-0.3H299.2z M330.7-0.3l-3.1,3.1v6.8l10.1-9.9H330.7z M346.5-0.3l-18.9,18.6v6.8 l25.8-25.4H346.5z M362.2-0.3l-34.6,34.1v6.8l41.6-40.9H362.2z M378-0.3l-50.4,49.6v6.8l57.3-56.4H378z"></path><path class="st0" d="M14.5,200.2v-37.6l16.3-16h89v46.1l-23.4,23.4H30.8L14.5,200.2z M34.3,54.3L5.2,63.9l4.4,13.7l25.8-8.7h68.1 l16.3,16v47.4H24.9L0,156.8v49.4l24.9,24.6h77.3l20.9-21.2l6,23l13.7-3.4l-8.6-33.9V78.9l-24.9-24.6H34.3z"></path><polygon class="st0" points="501.6,78.9 501.6,108.8 510.7,126 618.2,166.5 623,175.8 623,199.9 606.7,216.2 531.8,216.2 506,207.9  501.6,221.5 530,230.6 612.9,230.7 637.5,206.1 637.5,172 628.4,155.2 520.9,114.7 516.1,105.4 516.1,85.1 532.4,68.8 606.7,68.8  632.8,77.5 637.2,63.9 608.8,54.4 526.2,54.3 "></polygon></svg>